<svg width="130" height="130" viewBox="0 0 130 130" fill="none" xmlns="http://www.w3.org/2000/svg">
<path d="M78.8975 26.1752C79.6161 26.1752 80.1975 25.5937 80.1975 24.8752V20.7213C80.1975 20.0027 79.6161 19.4213 78.8975 19.4213C78.179 19.4213 77.5975 20.0027 77.5975 20.7213V24.8752C77.5975 25.5937 78.179 26.1752 78.8975 26.1752Z" fill="#4169E1"/>
<path d="M71.9494 26.1752C72.668 26.1752 73.2494 25.5937 73.2494 24.8752V20.7213C73.2494 20.0027 72.668 19.4213 71.9494 19.4213C71.2309 19.4213 70.6494 20.0027 70.6494 20.7213V24.8752C70.6494 25.5937 71.2309 26.1752 71.9494 26.1752Z" fill="#4169E1"/>
<path d="M65 26.1752C65.7186 26.1752 66.3 25.5937 66.3 24.8752V20.7213C66.3 20.0027 65.7186 19.4213 65 19.4213C64.2815 19.4213 63.7 20.0027 63.7 20.7213V24.8752C63.7 25.5937 64.2815 26.1752 65 26.1752Z" fill="#4169E1"/>
<path d="M58.0506 26.1752C58.7691 26.1752 59.3506 25.5937 59.3506 24.8752V20.7213C59.3506 20.0027 58.7691 19.4213 58.0506 19.4213C57.332 19.4213 56.7506 20.0027 56.7506 20.7213V24.8752C56.7506 25.5937 57.332 26.1752 58.0506 26.1752Z" fill="#4169E1"/>
<path d="M52.4024 24.8752V20.7213C52.4024 20.0027 51.821 19.4213 51.1024 19.4213C50.3839 19.4213 49.8024 20.0027 49.8024 20.7213V24.8752C49.8024 25.5937 50.3839 26.1752 51.1024 26.1752C51.821 26.1752 52.4024 25.5937 52.4024 24.8752Z" fill="#4169E1"/>
<path d="M40.6187 45.7387V109.757C40.6187 113.751 43.8674 117 47.8613 117H82.1387C86.1326 117 89.3813 113.751 89.3813 109.757V45.7387C89.3813 40.8776 85.7556 36.8469 81.0659 36.2108V32.6574H81.9774C85.3696 32.6574 88.1296 29.8975 88.1296 26.5053V19.1521C88.1296 15.76 85.3696 13 81.9774 13H48.0226C44.6304 13 41.8704 15.76 41.8704 19.1521V26.5053C41.8704 29.8975 44.6304 32.6574 48.0226 32.6574H48.9341V36.2108C44.2444 36.8469 40.6187 40.8776 40.6187 45.7387ZM86.7813 100.089H43.2187V53.4688H86.7813V100.089ZM82.1387 114.4H47.8613C45.302 114.4 43.2187 112.317 43.2187 109.757V102.689H86.7813V109.757C86.7813 112.317 84.698 114.4 82.1387 114.4ZM44.4704 26.5053V19.1521C44.4704 17.1933 46.0637 15.6 48.0226 15.6H81.9774C83.9363 15.6 85.5296 17.1933 85.5296 19.1521V26.5053C85.5296 28.4642 83.9363 30.0574 81.9774 30.0574H48.0226C46.0637 30.0574 44.4704 28.4642 44.4704 26.5053ZM78.4659 32.6574V37.4232C78.4659 38.1418 79.0474 38.7232 79.7659 38.7232C83.6342 38.7232 86.7813 41.8704 86.7813 45.7387V50.8688H43.2187V45.7387C43.2187 41.8704 46.3658 38.7232 50.2341 38.7232C50.9526 38.7232 51.5341 38.1418 51.5341 37.4232V32.6574H78.4659Z" fill="#4169E1"/>
<path d="M55.2906 68.0367H74.7094C75.4279 68.0367 76.0094 67.4553 76.0094 66.7367C76.0094 66.0182 75.4279 65.4367 74.7094 65.4367H55.2906C54.5721 65.4367 53.9906 66.0182 53.9906 66.7367C53.9906 67.4553 54.5721 68.0367 55.2906 68.0367Z" fill="#4169E1"/>
<path d="M55.2906 78.0787H74.7094C75.4279 78.0787 76.0094 77.4973 76.0094 76.7787C76.0094 76.0601 75.4279 75.4787 74.7094 75.4787H55.2906C54.5721 75.4787 53.9906 76.0601 53.9906 76.7787C53.9906 77.4973 54.5721 78.0787 55.2906 78.0787Z" fill="#4169E1"/>
<path d="M74.7094 85.5207H55.2906C54.5721 85.5207 53.9906 86.1021 53.9906 86.8207C53.9906 87.5392 54.5721 88.1207 55.2906 88.1207H74.7094C75.4279 88.1207 76.0094 87.5392 76.0094 86.8207C76.0094 86.1021 75.4279 85.5207 74.7094 85.5207Z" fill="#4169E1"/>
</svg>
