<svg width="130" height="130" viewBox="0 0 130 130" fill="none" xmlns="http://www.w3.org/2000/svg">
<path d="M60.58 50.7H65.91V55.9C65.91 56.68 66.43 57.2 67.21 57.2C67.99 57.2 68.51 56.68 68.51 55.9V50.7H73.84C74.62 50.7 75.14 50.18 75.14 49.4C75.14 48.62 74.62 48.1 73.84 48.1H68.51V42.77C68.51 41.99 67.99 41.47 67.21 41.47C66.43 41.47 65.91 41.99 65.91 42.77V48.1H60.58C59.8 48.1 59.28 48.62 59.28 49.4C59.28 50.18 59.93 50.7 60.58 50.7Z" fill="#2D53F5"/>
<path d="M49.79 69.29C49.79 70.07 50.31 70.59 51.09 70.59H82.81C83.59 70.59 84.11 70.07 84.11 69.29C84.11 68.51 83.59 67.99 82.81 67.99H51.09C50.44 67.99 49.79 68.51 49.79 69.29Z" fill="#2D53F5"/>
<path d="M82.94 75.14H51.09C50.31 75.14 49.79 75.66 49.79 76.44C49.79 77.22 50.31 77.74 51.09 77.74H82.81C83.59 77.74 84.11 77.22 84.11 76.44C84.11 75.66 83.59 75.14 82.94 75.14Z" fill="#2D53F5"/>
<path d="M82.94 82.29H51.09C50.31 82.29 49.79 82.81 49.79 83.59C49.79 84.37 50.31 84.89 51.09 84.89H82.81C83.59 84.89 84.11 84.37 84.11 83.59C84.11 82.81 83.59 82.29 82.94 82.29Z" fill="#2D53F5"/>
<path d="M82.94 89.44H51.09C50.31 89.44 49.79 89.96 49.79 90.74C49.79 91.52 50.31 92.04 51.09 92.04H82.81C83.59 92.04 84.11 91.52 84.11 90.74C84.11 89.96 83.59 89.44 82.94 89.44Z" fill="#2D53F5"/>
<path d="M31.46 115.31H102.05C102.83 115.31 103.35 114.79 103.35 114.01V27.04C103.35 26.26 102.83 25.74 102.05 25.74H82.68V23.27C82.68 22.49 82.16 21.97 81.38 21.97H74.1V21.45C74.1 17.42 70.85 14.04 66.69 14.04C62.66 14.04 59.28 17.29 59.28 21.45V21.97H52C51.22 21.97 50.7 22.49 50.7 23.27V25.74H31.46C30.68 25.74 30.16 26.26 30.16 27.04V114.01C30.16 114.66 30.81 115.31 31.46 115.31ZM53.56 24.57H60.84C61.62 24.57 62.14 24.05 62.14 23.27V21.45C62.14 18.85 64.22 16.64 66.95 16.64C69.68 16.64 71.76 18.72 71.76 21.45V23.27C71.76 24.05 72.28 24.57 73.06 24.57H80.34V30.68H53.56V24.57ZM52.26 33.28H81.38C82.16 33.28 82.68 32.76 82.68 31.98V28.34H91V101.66H42.64V28.34H50.96V31.98C50.96 32.76 51.48 33.28 52.26 33.28ZM32.76 28.34H39.91V102.96C39.91 103.74 40.43 104.26 41.21 104.26H92.3C93.08 104.26 93.6 103.74 93.6 102.96V28.34H100.75V112.71H32.76V28.34Z" fill="#2D53F5"/>
<path d="M66.82 22.62C67.6816 22.62 68.38 21.9216 68.38 21.06C68.38 20.1984 67.6816 19.5 66.82 19.5C65.9584 19.5 65.26 20.1984 65.26 21.06C65.26 21.9216 65.9584 22.62 66.82 22.62Z" fill="#2D53F5"/>
</svg>
