<svg width="130" height="130" viewBox="0 0 130 130" fill="none" xmlns="http://www.w3.org/2000/svg">
<path d="M60.8333 31.6667H31.6666C29.4565 31.6667 27.3369 32.5447 25.7741 34.1075C24.2113 35.6703 23.3333 37.7899 23.3333 40V98.3334C23.3333 100.543 24.2113 102.663 25.7741 104.226C27.3369 105.789 29.4565 106.667 31.6666 106.667H90C92.2101 106.667 94.3297 105.789 95.8925 104.226C97.4553 102.663 98.3333 100.543 98.3333 98.3334V69.1667" stroke="#2D53F5" stroke-width="2.5" stroke-linecap="round" stroke-linejoin="round"/>
<path d="M92.0833 25.4167C93.7409 23.7591 95.9891 22.8278 98.3333 22.8278C100.678 22.8278 102.926 23.7591 104.583 25.4167C106.241 27.0743 107.172 29.3224 107.172 31.6667C107.172 34.0109 106.241 36.2591 104.583 37.9167L65 77.5L48.3333 81.6667L52.5 65L92.0833 25.4167Z" stroke="#2D53F5" stroke-width="2.5" stroke-linecap="round" stroke-linejoin="round"/>
</svg>
