<svg width="130" height="130" viewBox="0 0 130 130" fill="none" xmlns="http://www.w3.org/2000/svg">
<path d="M95.3761 68.5217H86.6912V59.8368C86.6912 59.1182 86.1098 58.5368 85.3912 58.5368H72.3544C71.6358 58.5368 71.0544 59.1182 71.0544 59.8368V68.5217H62.3695C61.651 68.5217 61.0695 69.1031 61.0695 69.8217V82.8585C61.0695 83.577 61.651 84.1585 62.3695 84.1585H71.0544V92.8433C71.0544 93.5619 71.6358 94.1433 72.3544 94.1433H85.3912C86.1098 94.1433 86.6912 93.5619 86.6912 92.8433V84.1585H95.3761C96.0946 84.1585 96.6761 83.577 96.6761 82.8585V69.8217C96.6761 69.1031 96.0946 68.5217 95.3761 68.5217ZM94.0761 81.5585H85.3912C84.6727 81.5585 84.0912 82.1399 84.0912 82.8585V91.5433H73.6544V82.8585C73.6544 82.1399 73.0729 81.5585 72.3544 81.5585H63.6695V71.1217H72.3544C73.0729 71.1217 73.6544 70.5402 73.6544 69.8217V61.1368H84.0912V69.8217C84.0912 70.5402 84.6727 71.1217 85.3912 71.1217H94.0761V81.5585Z" fill="#2D53F5"/>
<path d="M110.862 49.1207H89.2544V19.1382C89.2544 15.7536 86.5008 13 83.1162 13H19.1382C15.7536 13 13 15.7536 13 19.1382V61.5405C13 64.7182 15.4273 67.3398 18.525 67.6482L29.8048 80.4375C30.0562 80.7232 30.4142 80.878 30.7798 80.878C30.9347 80.878 31.0896 80.8501 31.2394 80.7942C31.7446 80.6025 32.0798 80.1189 32.0798 79.578V67.6787H40.7456V97.6612C40.7456 101.046 43.4992 103.799 46.8838 103.799H97.9202V115.7C97.9202 116.241 98.2554 116.725 98.7607 116.916C98.9105 116.972 99.0653 117 99.2202 117C99.5858 117 99.9439 116.845 100.195 116.559L111.475 103.769C114.573 103.46 117 100.839 117 97.6612V55.2589C117 51.8743 114.246 49.1207 110.862 49.1207ZM30.7798 65.0787C30.0612 65.0787 29.4798 65.6602 29.4798 66.3787V76.1389L20.1132 65.5192C19.8669 65.2387 19.5114 65.0787 19.1382 65.0787C17.1869 65.0787 15.6 63.4918 15.6 61.5405V19.1382C15.6 17.1869 17.1869 15.6 19.1382 15.6H83.1162C85.0675 15.6 86.6544 17.1869 86.6544 19.1382V49.1207H46.8838C43.4992 49.1207 40.7456 51.8743 40.7456 55.2589V65.0787H30.7798ZM114.4 97.6612C114.4 99.6125 112.813 101.199 110.862 101.199C110.489 101.199 110.133 101.359 109.887 101.64L100.52 112.261V102.499C100.52 101.781 99.9388 101.199 99.2202 101.199H46.8838C44.9325 101.199 43.3456 99.6125 43.3456 97.6612V55.2589C43.3456 53.3076 44.9325 51.7207 46.8838 51.7207H110.862C112.813 51.7207 114.4 53.3076 114.4 55.2589V97.6612Z" fill="#2D53F5"/>
</svg>
