<svg width="50" height="50" viewBox="0 0 50 50" fill="none" xmlns="http://www.w3.org/2000/svg">
<rect width="50" height="50" rx="15" fill="white"/>
<path fill-rule="evenodd" clip-rule="evenodd" d="M19.3989 12.5H30.6008C34.4051 12.5 37.5001 15.595 37.5 19.3991V30.6009C37.5 34.405 34.4051 37.5 30.6008 37.5H19.3989C15.5949 37.5 12.5 34.4051 12.5 30.6009V19.3991C12.5 15.595 15.5949 12.5 19.3989 12.5ZM30.6009 35.2818C33.1821 35.2818 35.282 33.182 35.282 30.6008H35.2819V19.399C35.2819 16.818 33.1819 14.7181 30.6008 14.7181H19.399C16.818 14.7181 14.7181 16.818 14.7181 19.399V30.6008C14.7181 33.182 16.818 35.282 19.399 35.2818H30.6009ZM18.4524 25.0001C18.4524 21.3896 21.3896 18.4523 25 18.4523C28.6104 18.4523 31.5476 21.3896 31.5476 25.0001C31.5476 28.6105 28.6104 31.5476 25 31.5476C21.3896 31.5476 18.4524 28.6105 18.4524 25.0001ZM20.7069 25C20.7069 27.3671 22.6329 29.2928 25 29.2928C27.3671 29.2928 29.2931 27.3671 29.2931 25C29.2931 22.6326 27.3673 20.7068 25 20.7068C22.6327 20.7068 20.7069 22.6326 20.7069 25Z" fill="#2D53F5"/>
<mask id="mask0_146_154" style="mask-type:luminance" maskUnits="userSpaceOnUse" x="12" y="12" width="26" height="26">
<path fill-rule="evenodd" clip-rule="evenodd" d="M19.3989 12.5H30.6008C34.4051 12.5 37.5001 15.595 37.5 19.3991V30.6009C37.5 34.405 34.4051 37.5 30.6008 37.5H19.3989C15.5949 37.5 12.5 34.4051 12.5 30.6009V19.3991C12.5 15.595 15.5949 12.5 19.3989 12.5ZM30.6009 35.2818C33.1821 35.2818 35.282 33.182 35.282 30.6008H35.2819V19.399C35.2819 16.818 33.1819 14.7181 30.6008 14.7181H19.399C16.818 14.7181 14.7181 16.818 14.7181 19.399V30.6008C14.7181 33.182 16.818 35.282 19.399 35.2818H30.6009ZM18.4524 25.0001C18.4524 21.3896 21.3896 18.4523 25 18.4523C28.6104 18.4523 31.5476 21.3896 31.5476 25.0001C31.5476 28.6105 28.6104 31.5476 25 31.5476C21.3896 31.5476 18.4524 28.6105 18.4524 25.0001ZM20.7069 25C20.7069 27.3671 22.6329 29.2928 25 29.2928C27.3671 29.2928 29.2931 27.3671 29.2931 25C29.2931 22.6326 27.3673 20.7068 25 20.7068C22.6327 20.7068 20.7069 22.6326 20.7069 25Z" fill="white"/>
</mask>
<g mask="url(#mask0_146_154)">
</g>
</svg>
